<mxfile host="app.diagrams.net" agent="Mozilla/5.0 (Macintosh; Intel Mac OS X 10_15_7) AppleWebKit/537.36 (KHTML, like Gecko) Chrome/134.0.0.0 Safari/537.36" version="26.1.1">
  <diagram name="Page-1" id="3CucxFyd0oHZ7v77esOn">
    <mxGraphModel dx="1062" dy="589" grid="1" gridSize="10" guides="1" tooltips="1" connect="1" arrows="1" fold="1" page="1" pageScale="1" pageWidth="827" pageHeight="1169" math="0" shadow="0">
      <root>
        <mxCell id="0" />
        <mxCell id="1" parent="0" />
        <mxCell id="hUa3MmjVPTCR2uWjU0kE-270" value="" style="shape=table;startSize=0;container=1;collapsible=0;childLayout=tableLayout;fontSize=16;rowLines=0;columnLines=0;swimlaneHead=1;fontFamily=Lucida Console;left=0;right=0;strokeWidth=2;" vertex="1" parent="1">
          <mxGeometry x="40" y="40" width="560" height="120" as="geometry" />
        </mxCell>
        <mxCell id="hUa3MmjVPTCR2uWjU0kE-271" value="" style="shape=tableRow;horizontal=0;startSize=0;swimlaneHead=0;swimlaneBody=0;strokeColor=inherit;top=0;left=0;bottom=0;right=0;collapsible=0;dropTarget=0;fillColor=none;points=[[0,0.5],[1,0.5]];portConstraint=eastwest;fontSize=16;fontFamily=Lucida Console;strokeWidth=2;" vertex="1" parent="hUa3MmjVPTCR2uWjU0kE-270">
          <mxGeometry width="560" height="30" as="geometry" />
        </mxCell>
        <mxCell id="hUa3MmjVPTCR2uWjU0kE-272" value="" style="shape=partialRectangle;html=1;whiteSpace=wrap;connectable=0;strokeColor=inherit;overflow=hidden;fillColor=none;top=0;left=0;bottom=1;right=0;pointerEvents=1;fontSize=16;fontFamily=Lucida Console;strokeWidth=2;" vertex="1" parent="hUa3MmjVPTCR2uWjU0kE-271">
          <mxGeometry width="100" height="30" as="geometry">
            <mxRectangle width="100" height="30" as="alternateBounds" />
          </mxGeometry>
        </mxCell>
        <mxCell id="hUa3MmjVPTCR2uWjU0kE-273" value="Employee Count" style="shape=partialRectangle;html=1;whiteSpace=wrap;connectable=0;strokeColor=inherit;overflow=hidden;fillColor=none;top=0;left=0;bottom=1;right=0;pointerEvents=1;fontSize=16;fontFamily=Lucida Console;strokeWidth=2;" vertex="1" parent="hUa3MmjVPTCR2uWjU0kE-271">
          <mxGeometry x="100" width="100" height="30" as="geometry">
            <mxRectangle width="100" height="30" as="alternateBounds" />
          </mxGeometry>
        </mxCell>
        <mxCell id="hUa3MmjVPTCR2uWjU0kE-274" value="Distribution Area" style="shape=partialRectangle;html=1;whiteSpace=wrap;connectable=0;strokeColor=inherit;overflow=hidden;fillColor=none;top=0;left=0;bottom=1;right=0;pointerEvents=1;fontSize=16;fontFamily=Lucida Console;strokeWidth=2;" vertex="1" parent="hUa3MmjVPTCR2uWjU0kE-271">
          <mxGeometry x="200" width="100" height="30" as="geometry">
            <mxRectangle width="100" height="30" as="alternateBounds" />
          </mxGeometry>
        </mxCell>
        <mxCell id="hUa3MmjVPTCR2uWjU0kE-283" value="..." style="shape=partialRectangle;html=1;whiteSpace=wrap;connectable=0;strokeColor=inherit;overflow=hidden;fillColor=none;top=0;left=0;bottom=1;right=0;pointerEvents=1;fontSize=16;fontFamily=Lucida Console;strokeWidth=2;" vertex="1" parent="hUa3MmjVPTCR2uWjU0kE-271">
          <mxGeometry x="300" width="40" height="30" as="geometry">
            <mxRectangle width="40" height="30" as="alternateBounds" />
          </mxGeometry>
        </mxCell>
        <mxCell id="hUa3MmjVPTCR2uWjU0kE-286" value="Product Types" style="shape=partialRectangle;html=1;whiteSpace=wrap;connectable=0;strokeColor=inherit;overflow=hidden;fillColor=none;top=0;left=0;bottom=1;right=0;pointerEvents=1;fontSize=16;fontFamily=Lucida Console;strokeWidth=2;" vertex="1" parent="hUa3MmjVPTCR2uWjU0kE-271">
          <mxGeometry x="340" width="220" height="30" as="geometry">
            <mxRectangle width="220" height="30" as="alternateBounds" />
          </mxGeometry>
        </mxCell>
        <mxCell id="hUa3MmjVPTCR2uWjU0kE-275" value="" style="shape=tableRow;horizontal=0;startSize=0;swimlaneHead=0;swimlaneBody=0;strokeColor=inherit;top=0;left=0;bottom=0;right=0;collapsible=0;dropTarget=0;fillColor=none;points=[[0,0.5],[1,0.5]];portConstraint=eastwest;fontSize=16;fontFamily=Lucida Console;strokeWidth=2;" vertex="1" parent="hUa3MmjVPTCR2uWjU0kE-270">
          <mxGeometry y="30" width="560" height="30" as="geometry" />
        </mxCell>
        <mxCell id="hUa3MmjVPTCR2uWjU0kE-276" value="Company A" style="shape=partialRectangle;html=1;whiteSpace=wrap;connectable=0;strokeColor=inherit;overflow=hidden;fillColor=none;top=0;left=0;bottom=0;right=0;pointerEvents=1;fontSize=16;fontFamily=Lucida Console;strokeWidth=2;" vertex="1" parent="hUa3MmjVPTCR2uWjU0kE-275">
          <mxGeometry width="100" height="30" as="geometry">
            <mxRectangle width="100" height="30" as="alternateBounds" />
          </mxGeometry>
        </mxCell>
        <mxCell id="hUa3MmjVPTCR2uWjU0kE-277" value="4" style="shape=partialRectangle;html=1;whiteSpace=wrap;connectable=0;strokeColor=inherit;overflow=hidden;fillColor=none;top=0;left=0;bottom=0;right=0;pointerEvents=1;fontSize=16;fontFamily=Lucida Console;strokeWidth=2;" vertex="1" parent="hUa3MmjVPTCR2uWjU0kE-275">
          <mxGeometry x="100" width="100" height="30" as="geometry">
            <mxRectangle width="100" height="30" as="alternateBounds" />
          </mxGeometry>
        </mxCell>
        <mxCell id="hUa3MmjVPTCR2uWjU0kE-278" value="3" style="shape=partialRectangle;html=1;whiteSpace=wrap;connectable=0;strokeColor=inherit;overflow=hidden;fillColor=none;top=0;left=0;bottom=0;right=0;pointerEvents=1;fontSize=16;fontFamily=Lucida Console;strokeWidth=2;" vertex="1" parent="hUa3MmjVPTCR2uWjU0kE-275">
          <mxGeometry x="200" width="100" height="30" as="geometry">
            <mxRectangle width="100" height="30" as="alternateBounds" />
          </mxGeometry>
        </mxCell>
        <mxCell id="hUa3MmjVPTCR2uWjU0kE-284" value="..." style="shape=partialRectangle;html=1;whiteSpace=wrap;connectable=0;strokeColor=inherit;overflow=hidden;fillColor=none;top=0;left=0;bottom=0;right=0;pointerEvents=1;fontSize=16;fontFamily=Lucida Console;strokeWidth=2;" vertex="1" parent="hUa3MmjVPTCR2uWjU0kE-275">
          <mxGeometry x="300" width="40" height="30" as="geometry">
            <mxRectangle width="40" height="30" as="alternateBounds" />
          </mxGeometry>
        </mxCell>
        <mxCell id="hUa3MmjVPTCR2uWjU0kE-287" value="&lt;span style=&quot;color: rgb(0, 0, 0); font-size: 16px; font-style: normal; font-variant-ligatures: normal; font-variant-caps: normal; font-weight: 400; letter-spacing: normal; orphans: 2; text-align: center; text-indent: 0px; text-transform: none; widows: 2; word-spacing: 0px; -webkit-text-stroke-width: 0px; white-space: normal; background-color: rgb(251, 251, 251); text-decoration-thickness: initial; text-decoration-style: initial; text-decoration-color: initial; float: none; display: inline !important;&quot;&gt;{&#39;Workclothes&#39;, &#39;Fabrics&#39;}&lt;/span&gt;" style="shape=partialRectangle;html=1;whiteSpace=wrap;connectable=0;strokeColor=inherit;overflow=hidden;fillColor=none;top=0;left=0;bottom=0;right=0;pointerEvents=1;fontSize=16;fontFamily=Lucida Console;strokeWidth=2;" vertex="1" parent="hUa3MmjVPTCR2uWjU0kE-275">
          <mxGeometry x="340" width="220" height="30" as="geometry">
            <mxRectangle width="220" height="30" as="alternateBounds" />
          </mxGeometry>
        </mxCell>
        <mxCell id="hUa3MmjVPTCR2uWjU0kE-279" value="" style="shape=tableRow;horizontal=0;startSize=0;swimlaneHead=0;swimlaneBody=0;strokeColor=inherit;top=0;left=0;bottom=0;right=0;collapsible=0;dropTarget=0;fillColor=none;points=[[0,0.5],[1,0.5]];portConstraint=eastwest;fontSize=16;fontFamily=Lucida Console;strokeWidth=2;" vertex="1" parent="hUa3MmjVPTCR2uWjU0kE-270">
          <mxGeometry y="60" width="560" height="30" as="geometry" />
        </mxCell>
        <mxCell id="hUa3MmjVPTCR2uWjU0kE-280" value="Company B" style="shape=partialRectangle;html=1;whiteSpace=wrap;connectable=0;strokeColor=inherit;overflow=hidden;fillColor=none;top=0;left=0;bottom=0;right=0;pointerEvents=1;fontSize=16;fontFamily=Lucida Console;strokeWidth=2;" vertex="1" parent="hUa3MmjVPTCR2uWjU0kE-279">
          <mxGeometry width="100" height="30" as="geometry">
            <mxRectangle width="100" height="30" as="alternateBounds" />
          </mxGeometry>
        </mxCell>
        <mxCell id="hUa3MmjVPTCR2uWjU0kE-281" value="1" style="shape=partialRectangle;html=1;whiteSpace=wrap;connectable=0;strokeColor=inherit;overflow=hidden;fillColor=none;top=0;left=0;bottom=0;right=0;pointerEvents=1;fontSize=16;fontFamily=Lucida Console;strokeWidth=2;" vertex="1" parent="hUa3MmjVPTCR2uWjU0kE-279">
          <mxGeometry x="100" width="100" height="30" as="geometry">
            <mxRectangle width="100" height="30" as="alternateBounds" />
          </mxGeometry>
        </mxCell>
        <mxCell id="hUa3MmjVPTCR2uWjU0kE-282" value="2" style="shape=partialRectangle;html=1;whiteSpace=wrap;connectable=0;strokeColor=inherit;overflow=hidden;fillColor=none;top=0;left=0;bottom=0;right=0;pointerEvents=1;fontSize=16;fontFamily=Lucida Console;strokeWidth=2;" vertex="1" parent="hUa3MmjVPTCR2uWjU0kE-279">
          <mxGeometry x="200" width="100" height="30" as="geometry">
            <mxRectangle width="100" height="30" as="alternateBounds" />
          </mxGeometry>
        </mxCell>
        <mxCell id="hUa3MmjVPTCR2uWjU0kE-285" value="..." style="shape=partialRectangle;html=1;whiteSpace=wrap;connectable=0;strokeColor=inherit;overflow=hidden;fillColor=none;top=0;left=0;bottom=0;right=0;pointerEvents=1;fontSize=16;fontFamily=Lucida Console;strokeWidth=2;" vertex="1" parent="hUa3MmjVPTCR2uWjU0kE-279">
          <mxGeometry x="300" width="40" height="30" as="geometry">
            <mxRectangle width="40" height="30" as="alternateBounds" />
          </mxGeometry>
        </mxCell>
        <mxCell id="hUa3MmjVPTCR2uWjU0kE-288" value="&lt;span style=&quot;color: rgb(0, 0, 0); font-size: 16px; font-style: normal; font-variant-ligatures: normal; font-variant-caps: normal; font-weight: 400; letter-spacing: normal; orphans: 2; text-align: center; text-indent: 0px; text-transform: none; widows: 2; word-spacing: 0px; -webkit-text-stroke-width: 0px; white-space: normal; background-color: rgb(251, 251, 251); text-decoration-thickness: initial; text-decoration-style: initial; text-decoration-color: initial; float: none; display: inline !important;&quot;&gt;{&#39;CNC-Milled Parts&#39;}&lt;/span&gt;" style="shape=partialRectangle;html=1;whiteSpace=wrap;connectable=0;strokeColor=inherit;overflow=hidden;fillColor=none;top=0;left=0;bottom=0;right=0;pointerEvents=1;fontSize=16;fontFamily=Lucida Console;strokeWidth=2;" vertex="1" parent="hUa3MmjVPTCR2uWjU0kE-279">
          <mxGeometry x="340" width="220" height="30" as="geometry">
            <mxRectangle width="220" height="30" as="alternateBounds" />
          </mxGeometry>
        </mxCell>
        <mxCell id="hUa3MmjVPTCR2uWjU0kE-289" style="shape=tableRow;horizontal=0;startSize=0;swimlaneHead=0;swimlaneBody=0;strokeColor=inherit;top=0;left=0;bottom=0;right=0;collapsible=0;dropTarget=0;fillColor=none;points=[[0,0.5],[1,0.5]];portConstraint=eastwest;fontSize=16;fontFamily=Lucida Console;strokeWidth=2;" vertex="1" parent="hUa3MmjVPTCR2uWjU0kE-270">
          <mxGeometry y="90" width="560" height="30" as="geometry" />
        </mxCell>
        <mxCell id="hUa3MmjVPTCR2uWjU0kE-290" value="..." style="shape=partialRectangle;html=1;whiteSpace=wrap;connectable=0;strokeColor=inherit;overflow=hidden;fillColor=none;top=0;left=0;bottom=0;right=0;pointerEvents=1;fontSize=16;fontFamily=Lucida Console;strokeWidth=2;" vertex="1" parent="hUa3MmjVPTCR2uWjU0kE-289">
          <mxGeometry width="100" height="30" as="geometry">
            <mxRectangle width="100" height="30" as="alternateBounds" />
          </mxGeometry>
        </mxCell>
        <mxCell id="hUa3MmjVPTCR2uWjU0kE-291" value="..." style="shape=partialRectangle;html=1;whiteSpace=wrap;connectable=0;strokeColor=inherit;overflow=hidden;fillColor=none;top=0;left=0;bottom=0;right=0;pointerEvents=1;fontSize=16;fontFamily=Lucida Console;strokeWidth=2;" vertex="1" parent="hUa3MmjVPTCR2uWjU0kE-289">
          <mxGeometry x="100" width="100" height="30" as="geometry">
            <mxRectangle width="100" height="30" as="alternateBounds" />
          </mxGeometry>
        </mxCell>
        <mxCell id="hUa3MmjVPTCR2uWjU0kE-292" value="..." style="shape=partialRectangle;html=1;whiteSpace=wrap;connectable=0;strokeColor=inherit;overflow=hidden;fillColor=none;top=0;left=0;bottom=0;right=0;pointerEvents=1;fontSize=16;fontFamily=Lucida Console;strokeWidth=2;" vertex="1" parent="hUa3MmjVPTCR2uWjU0kE-289">
          <mxGeometry x="200" width="100" height="30" as="geometry">
            <mxRectangle width="100" height="30" as="alternateBounds" />
          </mxGeometry>
        </mxCell>
        <mxCell id="hUa3MmjVPTCR2uWjU0kE-293" value="..." style="shape=partialRectangle;html=1;whiteSpace=wrap;connectable=0;strokeColor=inherit;overflow=hidden;fillColor=none;top=0;left=0;bottom=0;right=0;pointerEvents=1;fontSize=16;fontFamily=Lucida Console;strokeWidth=2;" vertex="1" parent="hUa3MmjVPTCR2uWjU0kE-289">
          <mxGeometry x="300" width="40" height="30" as="geometry">
            <mxRectangle width="40" height="30" as="alternateBounds" />
          </mxGeometry>
        </mxCell>
        <mxCell id="hUa3MmjVPTCR2uWjU0kE-294" value="..." style="shape=partialRectangle;html=1;whiteSpace=wrap;connectable=0;strokeColor=inherit;overflow=hidden;fillColor=none;top=0;left=0;bottom=0;right=0;pointerEvents=1;fontSize=16;fontFamily=Lucida Console;strokeWidth=2;" vertex="1" parent="hUa3MmjVPTCR2uWjU0kE-289">
          <mxGeometry x="340" width="220" height="30" as="geometry">
            <mxRectangle width="220" height="30" as="alternateBounds" />
          </mxGeometry>
        </mxCell>
        <mxCell id="hUa3MmjVPTCR2uWjU0kE-315" value="" style="shape=table;startSize=0;container=1;collapsible=0;childLayout=tableLayout;fontSize=16;rowLines=0;columnLines=0;swimlaneHead=1;fontFamily=Lucida Console;left=0;right=0;strokeWidth=2;" vertex="1" parent="1">
          <mxGeometry x="120" y="240" width="320" height="160" as="geometry" />
        </mxCell>
        <mxCell id="hUa3MmjVPTCR2uWjU0kE-316" value="" style="shape=tableRow;horizontal=0;startSize=0;swimlaneHead=0;swimlaneBody=0;strokeColor=inherit;top=0;left=0;bottom=0;right=0;collapsible=0;dropTarget=0;fillColor=none;points=[[0,0.5],[1,0.5]];portConstraint=eastwest;fontSize=16;fontFamily=Lucida Console;strokeWidth=2;" vertex="1" parent="hUa3MmjVPTCR2uWjU0kE-315">
          <mxGeometry width="320" height="40" as="geometry" />
        </mxCell>
        <mxCell id="hUa3MmjVPTCR2uWjU0kE-321" value="Products" style="shape=partialRectangle;html=1;whiteSpace=wrap;connectable=0;strokeColor=inherit;overflow=hidden;fillColor=none;top=0;left=0;bottom=1;right=0;pointerEvents=1;fontSize=16;fontFamily=Lucida Console;strokeWidth=2;" vertex="1" parent="hUa3MmjVPTCR2uWjU0kE-316">
          <mxGeometry width="160" height="40" as="geometry">
            <mxRectangle width="160" height="40" as="alternateBounds" />
          </mxGeometry>
        </mxCell>
        <mxCell id="hUa3MmjVPTCR2uWjU0kE-340" value="Embeddings" style="shape=partialRectangle;html=1;whiteSpace=wrap;connectable=0;strokeColor=inherit;overflow=hidden;fillColor=none;top=0;left=0;bottom=1;right=0;pointerEvents=1;fontSize=16;fontFamily=Lucida Console;strokeWidth=2;" vertex="1" parent="hUa3MmjVPTCR2uWjU0kE-316">
          <mxGeometry x="160" width="160" height="40" as="geometry">
            <mxRectangle width="160" height="40" as="alternateBounds" />
          </mxGeometry>
        </mxCell>
        <mxCell id="hUa3MmjVPTCR2uWjU0kE-322" value="" style="shape=tableRow;horizontal=0;startSize=0;swimlaneHead=0;swimlaneBody=0;strokeColor=inherit;top=0;left=0;bottom=0;right=0;collapsible=0;dropTarget=0;fillColor=none;points=[[0,0.5],[1,0.5]];portConstraint=eastwest;fontSize=16;fontFamily=Lucida Console;strokeWidth=2;" vertex="1" parent="hUa3MmjVPTCR2uWjU0kE-315">
          <mxGeometry y="40" width="320" height="30" as="geometry" />
        </mxCell>
        <mxCell id="hUa3MmjVPTCR2uWjU0kE-327" value="&lt;span style=&quot;color: rgb(0, 0, 0); font-size: 16px; font-style: normal; font-variant-ligatures: normal; font-variant-caps: normal; font-weight: 400; letter-spacing: normal; orphans: 2; text-align: center; text-indent: 0px; text-transform: none; widows: 2; word-spacing: 0px; -webkit-text-stroke-width: 0px; white-space: normal; background-color: rgb(251, 251, 251); text-decoration-thickness: initial; text-decoration-style: initial; text-decoration-color: initial; float: none; display: inline !important;&quot;&gt;Workclothes&lt;/span&gt;" style="shape=partialRectangle;html=1;whiteSpace=wrap;connectable=0;strokeColor=inherit;overflow=hidden;fillColor=none;top=0;left=0;bottom=0;right=0;pointerEvents=1;fontSize=16;fontFamily=Lucida Console;strokeWidth=2;" vertex="1" parent="hUa3MmjVPTCR2uWjU0kE-322">
          <mxGeometry width="160" height="30" as="geometry">
            <mxRectangle width="160" height="30" as="alternateBounds" />
          </mxGeometry>
        </mxCell>
        <mxCell id="hUa3MmjVPTCR2uWjU0kE-341" style="shape=partialRectangle;html=1;whiteSpace=wrap;connectable=0;strokeColor=inherit;overflow=hidden;fillColor=none;top=1;left=1;bottom=1;right=0;pointerEvents=1;fontSize=16;fontFamily=Lucida Console;strokeWidth=2;" vertex="1" parent="hUa3MmjVPTCR2uWjU0kE-322">
          <mxGeometry x="160" width="160" height="30" as="geometry">
            <mxRectangle width="160" height="30" as="alternateBounds" />
          </mxGeometry>
        </mxCell>
        <mxCell id="hUa3MmjVPTCR2uWjU0kE-328" value="" style="shape=tableRow;horizontal=0;startSize=0;swimlaneHead=0;swimlaneBody=0;strokeColor=inherit;top=0;left=0;bottom=0;right=0;collapsible=0;dropTarget=0;fillColor=none;points=[[0,0.5],[1,0.5]];portConstraint=eastwest;fontSize=16;fontFamily=Lucida Console;strokeWidth=2;" vertex="1" parent="hUa3MmjVPTCR2uWjU0kE-315">
          <mxGeometry y="70" width="320" height="30" as="geometry" />
        </mxCell>
        <mxCell id="hUa3MmjVPTCR2uWjU0kE-333" value="&lt;span style=&quot;color: rgb(0, 0, 0); font-size: 16px; font-style: normal; font-variant-ligatures: normal; font-variant-caps: normal; font-weight: 400; letter-spacing: normal; orphans: 2; text-align: center; text-indent: 0px; text-transform: none; widows: 2; word-spacing: 0px; -webkit-text-stroke-width: 0px; white-space: normal; background-color: rgb(251, 251, 251); text-decoration-thickness: initial; text-decoration-style: initial; text-decoration-color: initial; float: none; display: inline !important;&quot;&gt;Fabrics&lt;/span&gt;" style="shape=partialRectangle;html=1;whiteSpace=wrap;connectable=0;strokeColor=inherit;overflow=hidden;fillColor=none;top=0;left=0;bottom=0;right=0;pointerEvents=1;fontSize=16;fontFamily=Lucida Console;strokeWidth=2;" vertex="1" parent="hUa3MmjVPTCR2uWjU0kE-328">
          <mxGeometry width="160" height="30" as="geometry">
            <mxRectangle width="160" height="30" as="alternateBounds" />
          </mxGeometry>
        </mxCell>
        <mxCell id="hUa3MmjVPTCR2uWjU0kE-342" style="shape=partialRectangle;html=1;whiteSpace=wrap;connectable=0;strokeColor=inherit;overflow=hidden;fillColor=none;top=0;left=0;bottom=0;right=0;pointerEvents=1;fontSize=16;fontFamily=Lucida Console;strokeWidth=2;" vertex="1" parent="hUa3MmjVPTCR2uWjU0kE-328">
          <mxGeometry x="160" width="160" height="30" as="geometry">
            <mxRectangle width="160" height="30" as="alternateBounds" />
          </mxGeometry>
        </mxCell>
        <mxCell id="hUa3MmjVPTCR2uWjU0kE-344" style="shape=tableRow;horizontal=0;startSize=0;swimlaneHead=0;swimlaneBody=0;strokeColor=inherit;top=0;left=0;bottom=0;right=0;collapsible=0;dropTarget=0;fillColor=none;points=[[0,0.5],[1,0.5]];portConstraint=eastwest;fontSize=16;fontFamily=Lucida Console;strokeWidth=2;" vertex="1" parent="hUa3MmjVPTCR2uWjU0kE-315">
          <mxGeometry y="100" width="320" height="30" as="geometry" />
        </mxCell>
        <mxCell id="hUa3MmjVPTCR2uWjU0kE-345" value="CNC-Milled Parts" style="shape=partialRectangle;html=1;whiteSpace=wrap;connectable=0;strokeColor=inherit;overflow=hidden;fillColor=none;top=0;left=0;bottom=0;right=0;pointerEvents=1;fontSize=16;fontFamily=Lucida Console;strokeWidth=2;" vertex="1" parent="hUa3MmjVPTCR2uWjU0kE-344">
          <mxGeometry width="160" height="30" as="geometry">
            <mxRectangle width="160" height="30" as="alternateBounds" />
          </mxGeometry>
        </mxCell>
        <mxCell id="hUa3MmjVPTCR2uWjU0kE-346" style="shape=partialRectangle;html=1;whiteSpace=wrap;connectable=0;strokeColor=inherit;overflow=hidden;fillColor=none;top=0;left=0;bottom=0;right=0;pointerEvents=1;fontSize=16;fontFamily=Lucida Console;strokeWidth=2;" vertex="1" parent="hUa3MmjVPTCR2uWjU0kE-344">
          <mxGeometry x="160" width="160" height="30" as="geometry">
            <mxRectangle width="160" height="30" as="alternateBounds" />
          </mxGeometry>
        </mxCell>
        <mxCell id="hUa3MmjVPTCR2uWjU0kE-334" style="shape=tableRow;horizontal=0;startSize=0;swimlaneHead=0;swimlaneBody=0;strokeColor=inherit;top=0;left=0;bottom=0;right=0;collapsible=0;dropTarget=0;fillColor=none;points=[[0,0.5],[1,0.5]];portConstraint=eastwest;fontSize=16;fontFamily=Lucida Console;strokeWidth=2;" vertex="1" parent="hUa3MmjVPTCR2uWjU0kE-315">
          <mxGeometry y="130" width="320" height="30" as="geometry" />
        </mxCell>
        <mxCell id="hUa3MmjVPTCR2uWjU0kE-339" value="..." style="shape=partialRectangle;html=1;whiteSpace=wrap;connectable=0;strokeColor=inherit;overflow=hidden;fillColor=none;top=0;left=0;bottom=0;right=0;pointerEvents=1;fontSize=16;fontFamily=Lucida Console;strokeWidth=2;" vertex="1" parent="hUa3MmjVPTCR2uWjU0kE-334">
          <mxGeometry width="160" height="30" as="geometry">
            <mxRectangle width="160" height="30" as="alternateBounds" />
          </mxGeometry>
        </mxCell>
        <mxCell id="hUa3MmjVPTCR2uWjU0kE-343" style="shape=partialRectangle;html=1;whiteSpace=wrap;connectable=0;strokeColor=inherit;overflow=hidden;fillColor=none;top=0;left=0;bottom=0;right=0;pointerEvents=1;fontSize=16;fontFamily=Lucida Console;strokeWidth=2;" vertex="1" parent="hUa3MmjVPTCR2uWjU0kE-334">
          <mxGeometry x="160" width="160" height="30" as="geometry">
            <mxRectangle width="160" height="30" as="alternateBounds" />
          </mxGeometry>
        </mxCell>
        <mxCell id="hUa3MmjVPTCR2uWjU0kE-347" value="0.1" style="rounded=0;whiteSpace=wrap;html=1;strokeColor=default;align=center;verticalAlign=middle;fontFamily=Lucida Console;fontSize=16;fontColor=default;fillColor=default;strokeWidth=2;" vertex="1" parent="1">
          <mxGeometry x="280" y="280" width="40" height="30" as="geometry" />
        </mxCell>
        <mxCell id="hUa3MmjVPTCR2uWjU0kE-351" value="0.8" style="rounded=0;whiteSpace=wrap;html=1;strokeColor=default;align=center;verticalAlign=middle;fontFamily=Lucida Console;fontSize=16;fontColor=default;fillColor=default;strokeWidth=2;" vertex="1" parent="1">
          <mxGeometry x="320" y="280" width="40" height="30" as="geometry" />
        </mxCell>
        <mxCell id="hUa3MmjVPTCR2uWjU0kE-352" value="..." style="rounded=0;whiteSpace=wrap;html=1;strokeColor=default;align=center;verticalAlign=middle;fontFamily=Lucida Console;fontSize=16;fontColor=default;fillColor=default;strokeWidth=2;" vertex="1" parent="1">
          <mxGeometry x="360" y="280" width="40" height="30" as="geometry" />
        </mxCell>
        <mxCell id="hUa3MmjVPTCR2uWjU0kE-353" value="0.6" style="rounded=0;whiteSpace=wrap;html=1;strokeColor=default;align=center;verticalAlign=middle;fontFamily=Lucida Console;fontSize=16;fontColor=default;fillColor=default;strokeWidth=2;" vertex="1" parent="1">
          <mxGeometry x="400" y="280" width="40" height="30" as="geometry" />
        </mxCell>
        <mxCell id="hUa3MmjVPTCR2uWjU0kE-357" value="0.5" style="rounded=0;whiteSpace=wrap;html=1;strokeColor=default;align=center;verticalAlign=middle;fontFamily=Lucida Console;fontSize=16;fontColor=default;fillColor=default;strokeWidth=2;" vertex="1" parent="1">
          <mxGeometry x="280" y="310" width="40" height="30" as="geometry" />
        </mxCell>
        <mxCell id="hUa3MmjVPTCR2uWjU0kE-358" value="0.3" style="rounded=0;whiteSpace=wrap;html=1;strokeColor=default;align=center;verticalAlign=middle;fontFamily=Lucida Console;fontSize=16;fontColor=default;fillColor=default;strokeWidth=2;" vertex="1" parent="1">
          <mxGeometry x="320" y="310" width="40" height="30" as="geometry" />
        </mxCell>
        <mxCell id="hUa3MmjVPTCR2uWjU0kE-359" value="..." style="rounded=0;whiteSpace=wrap;html=1;strokeColor=default;align=center;verticalAlign=middle;fontFamily=Lucida Console;fontSize=16;fontColor=default;fillColor=default;strokeWidth=2;" vertex="1" parent="1">
          <mxGeometry x="360" y="310" width="40" height="30" as="geometry" />
        </mxCell>
        <mxCell id="hUa3MmjVPTCR2uWjU0kE-360" value="0.4" style="rounded=0;whiteSpace=wrap;html=1;strokeColor=default;align=center;verticalAlign=middle;fontFamily=Lucida Console;fontSize=16;fontColor=default;fillColor=default;strokeWidth=2;" vertex="1" parent="1">
          <mxGeometry x="400" y="310" width="40" height="30" as="geometry" />
        </mxCell>
        <mxCell id="hUa3MmjVPTCR2uWjU0kE-361" value="0.8" style="rounded=0;whiteSpace=wrap;html=1;strokeColor=default;align=center;verticalAlign=middle;fontFamily=Lucida Console;fontSize=16;fontColor=default;fillColor=default;strokeWidth=2;" vertex="1" parent="1">
          <mxGeometry x="280" y="340" width="40" height="30" as="geometry" />
        </mxCell>
        <mxCell id="hUa3MmjVPTCR2uWjU0kE-362" value="0.7" style="rounded=0;whiteSpace=wrap;html=1;strokeColor=default;align=center;verticalAlign=middle;fontFamily=Lucida Console;fontSize=16;fontColor=default;fillColor=default;strokeWidth=2;" vertex="1" parent="1">
          <mxGeometry x="320" y="340" width="40" height="30" as="geometry" />
        </mxCell>
        <mxCell id="hUa3MmjVPTCR2uWjU0kE-363" value="..." style="rounded=0;whiteSpace=wrap;html=1;strokeColor=default;align=center;verticalAlign=middle;fontFamily=Lucida Console;fontSize=16;fontColor=default;fillColor=default;strokeWidth=2;" vertex="1" parent="1">
          <mxGeometry x="360" y="340" width="40" height="30" as="geometry" />
        </mxCell>
        <mxCell id="hUa3MmjVPTCR2uWjU0kE-364" value="0.9" style="rounded=0;whiteSpace=wrap;html=1;strokeColor=default;align=center;verticalAlign=middle;fontFamily=Lucida Console;fontSize=16;fontColor=default;fillColor=default;strokeWidth=2;" vertex="1" parent="1">
          <mxGeometry x="400" y="340" width="40" height="30" as="geometry" />
        </mxCell>
        <mxCell id="hUa3MmjVPTCR2uWjU0kE-365" value="..." style="rounded=0;whiteSpace=wrap;html=1;strokeColor=default;align=center;verticalAlign=middle;fontFamily=Lucida Console;fontSize=16;fontColor=default;fillColor=default;strokeWidth=2;" vertex="1" parent="1">
          <mxGeometry x="280" y="370" width="40" height="30" as="geometry" />
        </mxCell>
        <mxCell id="hUa3MmjVPTCR2uWjU0kE-366" value="..." style="rounded=0;whiteSpace=wrap;html=1;strokeColor=default;align=center;verticalAlign=middle;fontFamily=Lucida Console;fontSize=16;fontColor=default;fillColor=default;strokeWidth=2;" vertex="1" parent="1">
          <mxGeometry x="320" y="370" width="40" height="30" as="geometry" />
        </mxCell>
        <mxCell id="hUa3MmjVPTCR2uWjU0kE-367" value="..." style="rounded=0;whiteSpace=wrap;html=1;strokeColor=default;align=center;verticalAlign=middle;fontFamily=Lucida Console;fontSize=16;fontColor=default;fillColor=default;strokeWidth=2;" vertex="1" parent="1">
          <mxGeometry x="360" y="370" width="40" height="30" as="geometry" />
        </mxCell>
        <mxCell id="hUa3MmjVPTCR2uWjU0kE-368" value="..." style="rounded=0;whiteSpace=wrap;html=1;strokeColor=default;align=center;verticalAlign=middle;fontFamily=Lucida Console;fontSize=16;fontColor=default;fillColor=default;strokeWidth=2;" vertex="1" parent="1">
          <mxGeometry x="400" y="370" width="40" height="30" as="geometry" />
        </mxCell>
        <mxCell id="hUa3MmjVPTCR2uWjU0kE-369" value="Clustering Products" style="endArrow=classic;html=1;rounded=0;fontFamily=Lucida Console;fontSize=16;fontColor=default;exitX=0;exitY=1;exitDx=0;exitDy=0;entryX=0.499;entryY=-0.003;entryDx=0;entryDy=0;entryPerimeter=0;strokeWidth=2;" edge="1" parent="1" source="hUa3MmjVPTCR2uWjU0kE-365" target="hUa3MmjVPTCR2uWjU0kE-373">
          <mxGeometry width="50" height="50" relative="1" as="geometry">
            <mxPoint x="299.62" y="480" as="sourcePoint" />
            <mxPoint x="299.62" y="560" as="targetPoint" />
          </mxGeometry>
        </mxCell>
        <mxCell id="hUa3MmjVPTCR2uWjU0kE-372" value="" style="shape=table;startSize=0;container=1;collapsible=0;childLayout=tableLayout;fontSize=16;rowLines=0;columnLines=0;swimlaneHead=1;fontFamily=Lucida Console;left=0;right=0;strokeWidth=2;" vertex="1" parent="1">
          <mxGeometry x="150" y="480" width="260" height="160" as="geometry" />
        </mxCell>
        <mxCell id="hUa3MmjVPTCR2uWjU0kE-373" value="" style="shape=tableRow;horizontal=0;startSize=0;swimlaneHead=0;swimlaneBody=0;strokeColor=inherit;top=0;left=0;bottom=0;right=0;collapsible=0;dropTarget=0;fillColor=none;points=[[0,0.5],[1,0.5]];portConstraint=eastwest;fontSize=16;fontFamily=Lucida Console;strokeWidth=2;" vertex="1" parent="hUa3MmjVPTCR2uWjU0kE-372">
          <mxGeometry width="260" height="40" as="geometry" />
        </mxCell>
        <mxCell id="hUa3MmjVPTCR2uWjU0kE-374" value="Products" style="shape=partialRectangle;html=1;whiteSpace=wrap;connectable=0;strokeColor=inherit;overflow=hidden;fillColor=none;top=0;left=0;bottom=1;right=0;pointerEvents=1;fontSize=16;fontFamily=Lucida Console;strokeWidth=2;" vertex="1" parent="hUa3MmjVPTCR2uWjU0kE-373">
          <mxGeometry width="130" height="40" as="geometry">
            <mxRectangle width="130" height="40" as="alternateBounds" />
          </mxGeometry>
        </mxCell>
        <mxCell id="hUa3MmjVPTCR2uWjU0kE-375" value="Cluster Labels" style="shape=partialRectangle;html=1;whiteSpace=wrap;connectable=0;strokeColor=inherit;overflow=hidden;fillColor=none;top=0;left=0;bottom=1;right=0;pointerEvents=1;fontSize=16;fontFamily=Lucida Console;strokeWidth=2;" vertex="1" parent="hUa3MmjVPTCR2uWjU0kE-373">
          <mxGeometry x="130" width="130" height="40" as="geometry">
            <mxRectangle width="130" height="40" as="alternateBounds" />
          </mxGeometry>
        </mxCell>
        <mxCell id="hUa3MmjVPTCR2uWjU0kE-376" value="" style="shape=tableRow;horizontal=0;startSize=0;swimlaneHead=0;swimlaneBody=0;strokeColor=inherit;top=0;left=0;bottom=0;right=0;collapsible=0;dropTarget=0;fillColor=none;points=[[0,0.5],[1,0.5]];portConstraint=eastwest;fontSize=16;fontFamily=Lucida Console;strokeWidth=2;" vertex="1" parent="hUa3MmjVPTCR2uWjU0kE-372">
          <mxGeometry y="40" width="260" height="30" as="geometry" />
        </mxCell>
        <mxCell id="hUa3MmjVPTCR2uWjU0kE-377" value="&lt;span style=&quot;color: rgb(0, 0, 0); font-size: 16px; font-style: normal; font-variant-ligatures: normal; font-variant-caps: normal; font-weight: 400; letter-spacing: normal; orphans: 2; text-align: center; text-indent: 0px; text-transform: none; widows: 2; word-spacing: 0px; -webkit-text-stroke-width: 0px; white-space: normal; background-color: rgb(251, 251, 251); text-decoration-thickness: initial; text-decoration-style: initial; text-decoration-color: initial; float: none; display: inline !important;&quot;&gt;Workclothes&lt;/span&gt;" style="shape=partialRectangle;html=1;whiteSpace=wrap;connectable=0;strokeColor=inherit;overflow=hidden;fillColor=none;top=0;left=0;bottom=0;right=0;pointerEvents=1;fontSize=16;fontFamily=Lucida Console;strokeWidth=2;" vertex="1" parent="hUa3MmjVPTCR2uWjU0kE-376">
          <mxGeometry width="130" height="30" as="geometry">
            <mxRectangle width="130" height="30" as="alternateBounds" />
          </mxGeometry>
        </mxCell>
        <mxCell id="hUa3MmjVPTCR2uWjU0kE-378" value="17" style="shape=partialRectangle;html=1;whiteSpace=wrap;connectable=0;strokeColor=inherit;overflow=hidden;fillColor=none;top=0;left=0;bottom=0;right=0;pointerEvents=1;fontSize=16;fontFamily=Lucida Console;strokeWidth=2;" vertex="1" parent="hUa3MmjVPTCR2uWjU0kE-376">
          <mxGeometry x="130" width="130" height="30" as="geometry">
            <mxRectangle width="130" height="30" as="alternateBounds" />
          </mxGeometry>
        </mxCell>
        <mxCell id="hUa3MmjVPTCR2uWjU0kE-379" value="" style="shape=tableRow;horizontal=0;startSize=0;swimlaneHead=0;swimlaneBody=0;strokeColor=inherit;top=0;left=0;bottom=0;right=0;collapsible=0;dropTarget=0;fillColor=none;points=[[0,0.5],[1,0.5]];portConstraint=eastwest;fontSize=16;fontFamily=Lucida Console;strokeWidth=2;" vertex="1" parent="hUa3MmjVPTCR2uWjU0kE-372">
          <mxGeometry y="70" width="260" height="30" as="geometry" />
        </mxCell>
        <mxCell id="hUa3MmjVPTCR2uWjU0kE-380" value="&lt;span style=&quot;color: rgb(0, 0, 0); font-size: 16px; font-style: normal; font-variant-ligatures: normal; font-variant-caps: normal; font-weight: 400; letter-spacing: normal; orphans: 2; text-align: center; text-indent: 0px; text-transform: none; widows: 2; word-spacing: 0px; -webkit-text-stroke-width: 0px; white-space: normal; background-color: rgb(251, 251, 251); text-decoration-thickness: initial; text-decoration-style: initial; text-decoration-color: initial; float: none; display: inline !important;&quot;&gt;Fabrics&lt;/span&gt;" style="shape=partialRectangle;html=1;whiteSpace=wrap;connectable=0;strokeColor=inherit;overflow=hidden;fillColor=none;top=0;left=0;bottom=0;right=0;pointerEvents=1;fontSize=16;fontFamily=Lucida Console;strokeWidth=2;" vertex="1" parent="hUa3MmjVPTCR2uWjU0kE-379">
          <mxGeometry width="130" height="30" as="geometry">
            <mxRectangle width="130" height="30" as="alternateBounds" />
          </mxGeometry>
        </mxCell>
        <mxCell id="hUa3MmjVPTCR2uWjU0kE-381" value="17" style="shape=partialRectangle;html=1;whiteSpace=wrap;connectable=0;strokeColor=inherit;overflow=hidden;fillColor=none;top=0;left=0;bottom=0;right=0;pointerEvents=1;fontSize=16;fontFamily=Lucida Console;strokeWidth=2;" vertex="1" parent="hUa3MmjVPTCR2uWjU0kE-379">
          <mxGeometry x="130" width="130" height="30" as="geometry">
            <mxRectangle width="130" height="30" as="alternateBounds" />
          </mxGeometry>
        </mxCell>
        <mxCell id="hUa3MmjVPTCR2uWjU0kE-382" style="shape=tableRow;horizontal=0;startSize=0;swimlaneHead=0;swimlaneBody=0;strokeColor=inherit;top=0;left=0;bottom=0;right=0;collapsible=0;dropTarget=0;fillColor=none;points=[[0,0.5],[1,0.5]];portConstraint=eastwest;fontSize=16;fontFamily=Lucida Console;strokeWidth=2;" vertex="1" parent="hUa3MmjVPTCR2uWjU0kE-372">
          <mxGeometry y="100" width="260" height="30" as="geometry" />
        </mxCell>
        <mxCell id="hUa3MmjVPTCR2uWjU0kE-383" value="CNC-Milled Parts" style="shape=partialRectangle;html=1;whiteSpace=wrap;connectable=0;strokeColor=inherit;overflow=hidden;fillColor=none;top=0;left=0;bottom=0;right=0;pointerEvents=1;fontSize=16;fontFamily=Lucida Console;strokeWidth=2;" vertex="1" parent="hUa3MmjVPTCR2uWjU0kE-382">
          <mxGeometry width="130" height="30" as="geometry">
            <mxRectangle width="130" height="30" as="alternateBounds" />
          </mxGeometry>
        </mxCell>
        <mxCell id="hUa3MmjVPTCR2uWjU0kE-384" value="16" style="shape=partialRectangle;html=1;whiteSpace=wrap;connectable=0;strokeColor=inherit;overflow=hidden;fillColor=none;top=0;left=0;bottom=0;right=0;pointerEvents=1;fontSize=16;fontFamily=Lucida Console;strokeWidth=2;" vertex="1" parent="hUa3MmjVPTCR2uWjU0kE-382">
          <mxGeometry x="130" width="130" height="30" as="geometry">
            <mxRectangle width="130" height="30" as="alternateBounds" />
          </mxGeometry>
        </mxCell>
        <mxCell id="hUa3MmjVPTCR2uWjU0kE-385" style="shape=tableRow;horizontal=0;startSize=0;swimlaneHead=0;swimlaneBody=0;strokeColor=inherit;top=0;left=0;bottom=0;right=0;collapsible=0;dropTarget=0;fillColor=none;points=[[0,0.5],[1,0.5]];portConstraint=eastwest;fontSize=16;fontFamily=Lucida Console;strokeWidth=2;" vertex="1" parent="hUa3MmjVPTCR2uWjU0kE-372">
          <mxGeometry y="130" width="260" height="30" as="geometry" />
        </mxCell>
        <mxCell id="hUa3MmjVPTCR2uWjU0kE-386" value="..." style="shape=partialRectangle;html=1;whiteSpace=wrap;connectable=0;strokeColor=inherit;overflow=hidden;fillColor=none;top=0;left=0;bottom=0;right=0;pointerEvents=1;fontSize=16;fontFamily=Lucida Console;strokeWidth=2;" vertex="1" parent="hUa3MmjVPTCR2uWjU0kE-385">
          <mxGeometry width="130" height="30" as="geometry">
            <mxRectangle width="130" height="30" as="alternateBounds" />
          </mxGeometry>
        </mxCell>
        <mxCell id="hUa3MmjVPTCR2uWjU0kE-387" value="..." style="shape=partialRectangle;html=1;whiteSpace=wrap;connectable=0;strokeColor=inherit;overflow=hidden;fillColor=none;top=0;left=0;bottom=0;right=0;pointerEvents=1;fontSize=16;fontFamily=Lucida Console;strokeWidth=2;" vertex="1" parent="hUa3MmjVPTCR2uWjU0kE-385">
          <mxGeometry x="130" width="130" height="30" as="geometry">
            <mxRectangle width="130" height="30" as="alternateBounds" />
          </mxGeometry>
        </mxCell>
        <mxCell id="hUa3MmjVPTCR2uWjU0kE-405" value="Embedding Products" style="edgeStyle=elbowEdgeStyle;elbow=vertical;endArrow=classic;html=1;curved=0;rounded=0;endSize=8;startSize=8;fontFamily=Lucida Console;fontSize=16;fontColor=default;exitX=0.804;exitY=0.997;exitDx=0;exitDy=0;exitPerimeter=0;entryX=0.499;entryY=-0.003;entryDx=0;entryDy=0;entryPerimeter=0;strokeWidth=2;" edge="1" parent="1" source="hUa3MmjVPTCR2uWjU0kE-289" target="hUa3MmjVPTCR2uWjU0kE-316">
          <mxGeometry x="-0.0019" width="50" height="50" relative="1" as="geometry">
            <mxPoint x="460" y="270" as="sourcePoint" />
            <mxPoint x="510" y="220" as="targetPoint" />
            <mxPoint as="offset" />
          </mxGeometry>
        </mxCell>
        <mxCell id="hUa3MmjVPTCR2uWjU0kE-406" value="" style="shape=table;startSize=0;container=1;collapsible=0;childLayout=tableLayout;fontSize=16;rowLines=0;columnLines=0;swimlaneHead=1;fontFamily=Lucida Console;left=0;right=0;strokeWidth=2;" vertex="1" parent="1">
          <mxGeometry x="40" y="720" width="675.0000000000002" height="160" as="geometry" />
        </mxCell>
        <mxCell id="hUa3MmjVPTCR2uWjU0kE-407" value="" style="shape=tableRow;horizontal=0;startSize=0;swimlaneHead=0;swimlaneBody=0;strokeColor=inherit;top=0;left=0;bottom=0;right=0;collapsible=0;dropTarget=0;fillColor=none;points=[[0,0.5],[1,0.5]];portConstraint=eastwest;fontSize=16;fontFamily=Lucida Console;strokeWidth=2;" vertex="1" parent="hUa3MmjVPTCR2uWjU0kE-406">
          <mxGeometry width="675.0000000000002" height="40" as="geometry" />
        </mxCell>
        <mxCell id="hUa3MmjVPTCR2uWjU0kE-408" value="" style="shape=partialRectangle;html=1;whiteSpace=wrap;connectable=0;strokeColor=inherit;overflow=hidden;fillColor=none;top=0;left=0;bottom=1;right=0;pointerEvents=1;fontSize=16;fontFamily=Lucida Console;strokeWidth=2;" vertex="1" parent="hUa3MmjVPTCR2uWjU0kE-407">
          <mxGeometry width="100" height="40" as="geometry">
            <mxRectangle width="100" height="40" as="alternateBounds" />
          </mxGeometry>
        </mxCell>
        <mxCell id="hUa3MmjVPTCR2uWjU0kE-409" value="Employee Count" style="shape=partialRectangle;html=1;whiteSpace=wrap;connectable=0;strokeColor=inherit;overflow=hidden;fillColor=none;top=0;left=0;bottom=1;right=0;pointerEvents=1;fontSize=16;fontFamily=Lucida Console;strokeWidth=2;" vertex="1" parent="hUa3MmjVPTCR2uWjU0kE-407">
          <mxGeometry x="100" width="100" height="40" as="geometry">
            <mxRectangle width="100" height="40" as="alternateBounds" />
          </mxGeometry>
        </mxCell>
        <mxCell id="hUa3MmjVPTCR2uWjU0kE-410" value="Distribution Area" style="shape=partialRectangle;html=1;whiteSpace=wrap;connectable=0;strokeColor=inherit;overflow=hidden;fillColor=none;top=0;left=0;bottom=1;right=0;pointerEvents=1;fontSize=16;fontFamily=Lucida Console;strokeWidth=2;" vertex="1" parent="hUa3MmjVPTCR2uWjU0kE-407">
          <mxGeometry x="200" width="100" height="40" as="geometry">
            <mxRectangle width="100" height="40" as="alternateBounds" />
          </mxGeometry>
        </mxCell>
        <mxCell id="hUa3MmjVPTCR2uWjU0kE-411" value="..." style="shape=partialRectangle;html=1;whiteSpace=wrap;connectable=0;strokeColor=inherit;overflow=hidden;fillColor=none;top=0;left=0;bottom=1;right=0;pointerEvents=1;fontSize=16;fontFamily=Lucida Console;strokeWidth=2;" vertex="1" parent="hUa3MmjVPTCR2uWjU0kE-407">
          <mxGeometry x="300" width="40" height="40" as="geometry">
            <mxRectangle width="40" height="40" as="alternateBounds" />
          </mxGeometry>
        </mxCell>
        <mxCell id="hUa3MmjVPTCR2uWjU0kE-412" value="Product Label 1" style="shape=partialRectangle;html=1;whiteSpace=wrap;connectable=0;strokeColor=inherit;overflow=hidden;fillColor=none;top=0;left=0;bottom=1;right=0;pointerEvents=1;fontSize=16;fontFamily=Lucida Console;strokeWidth=2;" vertex="1" parent="hUa3MmjVPTCR2uWjU0kE-407">
          <mxGeometry x="340" width="65" height="40" as="geometry">
            <mxRectangle width="65" height="40" as="alternateBounds" />
          </mxGeometry>
        </mxCell>
        <mxCell id="hUa3MmjVPTCR2uWjU0kE-444" value="..." style="shape=partialRectangle;html=1;whiteSpace=wrap;connectable=0;strokeColor=inherit;overflow=hidden;fillColor=none;top=0;left=0;bottom=1;right=0;pointerEvents=1;fontSize=16;fontFamily=Lucida Console;strokeWidth=2;" vertex="1" parent="hUa3MmjVPTCR2uWjU0kE-407">
          <mxGeometry x="405" width="40" height="40" as="geometry">
            <mxRectangle width="40" height="40" as="alternateBounds" />
          </mxGeometry>
        </mxCell>
        <mxCell id="hUa3MmjVPTCR2uWjU0kE-440" value="Product Label 16" style="shape=partialRectangle;html=1;whiteSpace=wrap;connectable=0;strokeColor=inherit;overflow=hidden;fillColor=none;top=0;left=0;bottom=1;right=0;pointerEvents=1;fontSize=16;fontFamily=Lucida Console;strokeWidth=2;" vertex="1" parent="hUa3MmjVPTCR2uWjU0kE-407">
          <mxGeometry x="445" width="65" height="40" as="geometry">
            <mxRectangle width="65" height="40" as="alternateBounds" />
          </mxGeometry>
        </mxCell>
        <mxCell id="hUa3MmjVPTCR2uWjU0kE-436" value="Product Label 17" style="shape=partialRectangle;html=1;whiteSpace=wrap;connectable=0;strokeColor=inherit;overflow=hidden;fillColor=none;top=0;left=0;bottom=1;right=0;pointerEvents=1;fontSize=16;fontFamily=Lucida Console;strokeWidth=2;" vertex="1" parent="hUa3MmjVPTCR2uWjU0kE-407">
          <mxGeometry x="510" width="65" height="40" as="geometry">
            <mxRectangle width="65" height="40" as="alternateBounds" />
          </mxGeometry>
        </mxCell>
        <mxCell id="hUa3MmjVPTCR2uWjU0kE-432" value="..." style="shape=partialRectangle;html=1;whiteSpace=wrap;connectable=0;strokeColor=inherit;overflow=hidden;fillColor=none;top=0;left=0;bottom=1;right=0;pointerEvents=1;fontSize=16;fontFamily=Lucida Console;strokeWidth=2;" vertex="1" parent="hUa3MmjVPTCR2uWjU0kE-407">
          <mxGeometry x="575" width="40" height="40" as="geometry">
            <mxRectangle width="40" height="40" as="alternateBounds" />
          </mxGeometry>
        </mxCell>
        <mxCell id="hUa3MmjVPTCR2uWjU0kE-448" value="Product Label N" style="shape=partialRectangle;html=1;whiteSpace=wrap;connectable=0;strokeColor=inherit;overflow=hidden;fillColor=none;top=0;left=0;bottom=1;right=0;pointerEvents=1;fontSize=16;fontFamily=Lucida Console;strokeWidth=2;" vertex="1" parent="hUa3MmjVPTCR2uWjU0kE-407">
          <mxGeometry x="615" width="60" height="40" as="geometry">
            <mxRectangle width="60" height="40" as="alternateBounds" />
          </mxGeometry>
        </mxCell>
        <mxCell id="hUa3MmjVPTCR2uWjU0kE-413" value="" style="shape=tableRow;horizontal=0;startSize=0;swimlaneHead=0;swimlaneBody=0;strokeColor=inherit;top=0;left=0;bottom=0;right=0;collapsible=0;dropTarget=0;fillColor=none;points=[[0,0.5],[1,0.5]];portConstraint=eastwest;fontSize=16;fontFamily=Lucida Console;strokeWidth=2;" vertex="1" parent="hUa3MmjVPTCR2uWjU0kE-406">
          <mxGeometry y="40" width="675.0000000000002" height="40" as="geometry" />
        </mxCell>
        <mxCell id="hUa3MmjVPTCR2uWjU0kE-414" value="Company A" style="shape=partialRectangle;html=1;whiteSpace=wrap;connectable=0;strokeColor=inherit;overflow=hidden;fillColor=none;top=0;left=0;bottom=0;right=0;pointerEvents=1;fontSize=16;fontFamily=Lucida Console;strokeWidth=2;" vertex="1" parent="hUa3MmjVPTCR2uWjU0kE-413">
          <mxGeometry width="100" height="40" as="geometry">
            <mxRectangle width="100" height="40" as="alternateBounds" />
          </mxGeometry>
        </mxCell>
        <mxCell id="hUa3MmjVPTCR2uWjU0kE-415" value="4" style="shape=partialRectangle;html=1;whiteSpace=wrap;connectable=0;strokeColor=inherit;overflow=hidden;fillColor=none;top=0;left=0;bottom=0;right=0;pointerEvents=1;fontSize=16;fontFamily=Lucida Console;strokeWidth=2;" vertex="1" parent="hUa3MmjVPTCR2uWjU0kE-413">
          <mxGeometry x="100" width="100" height="40" as="geometry">
            <mxRectangle width="100" height="40" as="alternateBounds" />
          </mxGeometry>
        </mxCell>
        <mxCell id="hUa3MmjVPTCR2uWjU0kE-416" value="3" style="shape=partialRectangle;html=1;whiteSpace=wrap;connectable=0;strokeColor=inherit;overflow=hidden;fillColor=none;top=0;left=0;bottom=0;right=0;pointerEvents=1;fontSize=16;fontFamily=Lucida Console;strokeWidth=2;" vertex="1" parent="hUa3MmjVPTCR2uWjU0kE-413">
          <mxGeometry x="200" width="100" height="40" as="geometry">
            <mxRectangle width="100" height="40" as="alternateBounds" />
          </mxGeometry>
        </mxCell>
        <mxCell id="hUa3MmjVPTCR2uWjU0kE-417" value="..." style="shape=partialRectangle;html=1;whiteSpace=wrap;connectable=0;strokeColor=inherit;overflow=hidden;fillColor=none;top=0;left=0;bottom=0;right=0;pointerEvents=1;fontSize=16;fontFamily=Lucida Console;strokeWidth=2;" vertex="1" parent="hUa3MmjVPTCR2uWjU0kE-413">
          <mxGeometry x="300" width="40" height="40" as="geometry">
            <mxRectangle width="40" height="40" as="alternateBounds" />
          </mxGeometry>
        </mxCell>
        <mxCell id="hUa3MmjVPTCR2uWjU0kE-418" value="&lt;span style=&quot;color: rgb(0, 0, 0); font-size: 16px; font-style: normal; font-variant-ligatures: normal; font-variant-caps: normal; font-weight: 400; letter-spacing: normal; orphans: 2; text-align: center; text-indent: 0px; text-transform: none; widows: 2; word-spacing: 0px; -webkit-text-stroke-width: 0px; white-space: normal; background-color: rgb(251, 251, 251); text-decoration-thickness: initial; text-decoration-style: initial; text-decoration-color: initial; float: none; display: inline !important;&quot;&gt;0&lt;/span&gt;" style="shape=partialRectangle;html=1;whiteSpace=wrap;connectable=0;strokeColor=inherit;overflow=hidden;fillColor=none;top=0;left=0;bottom=0;right=0;pointerEvents=1;fontSize=16;fontFamily=Lucida Console;strokeWidth=2;" vertex="1" parent="hUa3MmjVPTCR2uWjU0kE-413">
          <mxGeometry x="340" width="65" height="40" as="geometry">
            <mxRectangle width="65" height="40" as="alternateBounds" />
          </mxGeometry>
        </mxCell>
        <mxCell id="hUa3MmjVPTCR2uWjU0kE-445" value="..." style="shape=partialRectangle;html=1;whiteSpace=wrap;connectable=0;strokeColor=inherit;overflow=hidden;fillColor=none;top=0;left=0;bottom=0;right=0;pointerEvents=1;fontSize=16;fontFamily=Lucida Console;strokeWidth=2;" vertex="1" parent="hUa3MmjVPTCR2uWjU0kE-413">
          <mxGeometry x="405" width="40" height="40" as="geometry">
            <mxRectangle width="40" height="40" as="alternateBounds" />
          </mxGeometry>
        </mxCell>
        <mxCell id="hUa3MmjVPTCR2uWjU0kE-441" value="0" style="shape=partialRectangle;html=1;whiteSpace=wrap;connectable=0;strokeColor=inherit;overflow=hidden;fillColor=none;top=0;left=0;bottom=0;right=0;pointerEvents=1;fontSize=16;fontFamily=Lucida Console;strokeWidth=2;" vertex="1" parent="hUa3MmjVPTCR2uWjU0kE-413">
          <mxGeometry x="445" width="65" height="40" as="geometry">
            <mxRectangle width="65" height="40" as="alternateBounds" />
          </mxGeometry>
        </mxCell>
        <mxCell id="hUa3MmjVPTCR2uWjU0kE-437" value="2" style="shape=partialRectangle;html=1;whiteSpace=wrap;connectable=0;strokeColor=inherit;overflow=hidden;fillColor=none;top=0;left=0;bottom=0;right=0;pointerEvents=1;fontSize=16;fontFamily=Lucida Console;strokeWidth=2;" vertex="1" parent="hUa3MmjVPTCR2uWjU0kE-413">
          <mxGeometry x="510" width="65" height="40" as="geometry">
            <mxRectangle width="65" height="40" as="alternateBounds" />
          </mxGeometry>
        </mxCell>
        <mxCell id="hUa3MmjVPTCR2uWjU0kE-433" value="..." style="shape=partialRectangle;html=1;whiteSpace=wrap;connectable=0;strokeColor=inherit;overflow=hidden;fillColor=none;top=0;left=0;bottom=0;right=0;pointerEvents=1;fontSize=16;fontFamily=Lucida Console;strokeWidth=2;" vertex="1" parent="hUa3MmjVPTCR2uWjU0kE-413">
          <mxGeometry x="575" width="40" height="40" as="geometry">
            <mxRectangle width="40" height="40" as="alternateBounds" />
          </mxGeometry>
        </mxCell>
        <mxCell id="hUa3MmjVPTCR2uWjU0kE-449" value="0" style="shape=partialRectangle;html=1;whiteSpace=wrap;connectable=0;strokeColor=inherit;overflow=hidden;fillColor=none;top=0;left=0;bottom=0;right=0;pointerEvents=1;fontSize=16;fontFamily=Lucida Console;strokeWidth=2;" vertex="1" parent="hUa3MmjVPTCR2uWjU0kE-413">
          <mxGeometry x="615" width="60" height="40" as="geometry">
            <mxRectangle width="60" height="40" as="alternateBounds" />
          </mxGeometry>
        </mxCell>
        <mxCell id="hUa3MmjVPTCR2uWjU0kE-419" value="" style="shape=tableRow;horizontal=0;startSize=0;swimlaneHead=0;swimlaneBody=0;strokeColor=inherit;top=0;left=0;bottom=0;right=0;collapsible=0;dropTarget=0;fillColor=none;points=[[0,0.5],[1,0.5]];portConstraint=eastwest;fontSize=16;fontFamily=Lucida Console;strokeWidth=2;" vertex="1" parent="hUa3MmjVPTCR2uWjU0kE-406">
          <mxGeometry y="80" width="675.0000000000002" height="40" as="geometry" />
        </mxCell>
        <mxCell id="hUa3MmjVPTCR2uWjU0kE-420" value="Company B" style="shape=partialRectangle;html=1;whiteSpace=wrap;connectable=0;strokeColor=inherit;overflow=hidden;fillColor=none;top=0;left=0;bottom=0;right=0;pointerEvents=1;fontSize=16;fontFamily=Lucida Console;strokeWidth=2;" vertex="1" parent="hUa3MmjVPTCR2uWjU0kE-419">
          <mxGeometry width="100" height="40" as="geometry">
            <mxRectangle width="100" height="40" as="alternateBounds" />
          </mxGeometry>
        </mxCell>
        <mxCell id="hUa3MmjVPTCR2uWjU0kE-421" value="1" style="shape=partialRectangle;html=1;whiteSpace=wrap;connectable=0;strokeColor=inherit;overflow=hidden;fillColor=none;top=0;left=0;bottom=0;right=0;pointerEvents=1;fontSize=16;fontFamily=Lucida Console;strokeWidth=2;" vertex="1" parent="hUa3MmjVPTCR2uWjU0kE-419">
          <mxGeometry x="100" width="100" height="40" as="geometry">
            <mxRectangle width="100" height="40" as="alternateBounds" />
          </mxGeometry>
        </mxCell>
        <mxCell id="hUa3MmjVPTCR2uWjU0kE-422" value="2" style="shape=partialRectangle;html=1;whiteSpace=wrap;connectable=0;strokeColor=inherit;overflow=hidden;fillColor=none;top=0;left=0;bottom=0;right=0;pointerEvents=1;fontSize=16;fontFamily=Lucida Console;strokeWidth=2;" vertex="1" parent="hUa3MmjVPTCR2uWjU0kE-419">
          <mxGeometry x="200" width="100" height="40" as="geometry">
            <mxRectangle width="100" height="40" as="alternateBounds" />
          </mxGeometry>
        </mxCell>
        <mxCell id="hUa3MmjVPTCR2uWjU0kE-423" value="..." style="shape=partialRectangle;html=1;whiteSpace=wrap;connectable=0;strokeColor=inherit;overflow=hidden;fillColor=none;top=0;left=0;bottom=0;right=0;pointerEvents=1;fontSize=16;fontFamily=Lucida Console;strokeWidth=2;" vertex="1" parent="hUa3MmjVPTCR2uWjU0kE-419">
          <mxGeometry x="300" width="40" height="40" as="geometry">
            <mxRectangle width="40" height="40" as="alternateBounds" />
          </mxGeometry>
        </mxCell>
        <mxCell id="hUa3MmjVPTCR2uWjU0kE-424" value="&lt;span style=&quot;color: rgb(0, 0, 0); font-size: 16px; font-style: normal; font-variant-ligatures: normal; font-variant-caps: normal; font-weight: 400; letter-spacing: normal; orphans: 2; text-align: center; text-indent: 0px; text-transform: none; widows: 2; word-spacing: 0px; -webkit-text-stroke-width: 0px; white-space: normal; background-color: rgb(251, 251, 251); text-decoration-thickness: initial; text-decoration-style: initial; text-decoration-color: initial; float: none; display: inline !important;&quot;&gt;0&lt;/span&gt;" style="shape=partialRectangle;html=1;whiteSpace=wrap;connectable=0;strokeColor=inherit;overflow=hidden;fillColor=none;top=0;left=0;bottom=0;right=0;pointerEvents=1;fontSize=16;fontFamily=Lucida Console;strokeWidth=2;" vertex="1" parent="hUa3MmjVPTCR2uWjU0kE-419">
          <mxGeometry x="340" width="65" height="40" as="geometry">
            <mxRectangle width="65" height="40" as="alternateBounds" />
          </mxGeometry>
        </mxCell>
        <mxCell id="hUa3MmjVPTCR2uWjU0kE-446" value="..." style="shape=partialRectangle;html=1;whiteSpace=wrap;connectable=0;strokeColor=inherit;overflow=hidden;fillColor=none;top=0;left=0;bottom=0;right=0;pointerEvents=1;fontSize=16;fontFamily=Lucida Console;strokeWidth=2;" vertex="1" parent="hUa3MmjVPTCR2uWjU0kE-419">
          <mxGeometry x="405" width="40" height="40" as="geometry">
            <mxRectangle width="40" height="40" as="alternateBounds" />
          </mxGeometry>
        </mxCell>
        <mxCell id="hUa3MmjVPTCR2uWjU0kE-442" value="1" style="shape=partialRectangle;html=1;whiteSpace=wrap;connectable=0;strokeColor=inherit;overflow=hidden;fillColor=none;top=0;left=0;bottom=0;right=0;pointerEvents=1;fontSize=16;fontFamily=Lucida Console;strokeWidth=2;" vertex="1" parent="hUa3MmjVPTCR2uWjU0kE-419">
          <mxGeometry x="445" width="65" height="40" as="geometry">
            <mxRectangle width="65" height="40" as="alternateBounds" />
          </mxGeometry>
        </mxCell>
        <mxCell id="hUa3MmjVPTCR2uWjU0kE-438" value="0" style="shape=partialRectangle;html=1;whiteSpace=wrap;connectable=0;strokeColor=inherit;overflow=hidden;fillColor=none;top=0;left=0;bottom=0;right=0;pointerEvents=1;fontSize=16;fontFamily=Lucida Console;strokeWidth=2;" vertex="1" parent="hUa3MmjVPTCR2uWjU0kE-419">
          <mxGeometry x="510" width="65" height="40" as="geometry">
            <mxRectangle width="65" height="40" as="alternateBounds" />
          </mxGeometry>
        </mxCell>
        <mxCell id="hUa3MmjVPTCR2uWjU0kE-434" value="..." style="shape=partialRectangle;html=1;whiteSpace=wrap;connectable=0;strokeColor=inherit;overflow=hidden;fillColor=none;top=0;left=0;bottom=0;right=0;pointerEvents=1;fontSize=16;fontFamily=Lucida Console;strokeWidth=2;" vertex="1" parent="hUa3MmjVPTCR2uWjU0kE-419">
          <mxGeometry x="575" width="40" height="40" as="geometry">
            <mxRectangle width="40" height="40" as="alternateBounds" />
          </mxGeometry>
        </mxCell>
        <mxCell id="hUa3MmjVPTCR2uWjU0kE-450" value="0" style="shape=partialRectangle;html=1;whiteSpace=wrap;connectable=0;strokeColor=inherit;overflow=hidden;fillColor=none;top=0;left=0;bottom=0;right=0;pointerEvents=1;fontSize=16;fontFamily=Lucida Console;strokeWidth=2;" vertex="1" parent="hUa3MmjVPTCR2uWjU0kE-419">
          <mxGeometry x="615" width="60" height="40" as="geometry">
            <mxRectangle width="60" height="40" as="alternateBounds" />
          </mxGeometry>
        </mxCell>
        <mxCell id="hUa3MmjVPTCR2uWjU0kE-425" style="shape=tableRow;horizontal=0;startSize=0;swimlaneHead=0;swimlaneBody=0;strokeColor=inherit;top=0;left=0;bottom=0;right=0;collapsible=0;dropTarget=0;fillColor=none;points=[[0,0.5],[1,0.5]];portConstraint=eastwest;fontSize=16;fontFamily=Lucida Console;strokeWidth=2;" vertex="1" parent="hUa3MmjVPTCR2uWjU0kE-406">
          <mxGeometry y="120" width="675.0000000000002" height="40" as="geometry" />
        </mxCell>
        <mxCell id="hUa3MmjVPTCR2uWjU0kE-426" value="..." style="shape=partialRectangle;html=1;whiteSpace=wrap;connectable=0;strokeColor=inherit;overflow=hidden;fillColor=none;top=0;left=0;bottom=0;right=0;pointerEvents=1;fontSize=16;fontFamily=Lucida Console;strokeWidth=2;" vertex="1" parent="hUa3MmjVPTCR2uWjU0kE-425">
          <mxGeometry width="100" height="40" as="geometry">
            <mxRectangle width="100" height="40" as="alternateBounds" />
          </mxGeometry>
        </mxCell>
        <mxCell id="hUa3MmjVPTCR2uWjU0kE-427" value="..." style="shape=partialRectangle;html=1;whiteSpace=wrap;connectable=0;strokeColor=inherit;overflow=hidden;fillColor=none;top=0;left=0;bottom=0;right=0;pointerEvents=1;fontSize=16;fontFamily=Lucida Console;strokeWidth=2;" vertex="1" parent="hUa3MmjVPTCR2uWjU0kE-425">
          <mxGeometry x="100" width="100" height="40" as="geometry">
            <mxRectangle width="100" height="40" as="alternateBounds" />
          </mxGeometry>
        </mxCell>
        <mxCell id="hUa3MmjVPTCR2uWjU0kE-428" value="..." style="shape=partialRectangle;html=1;whiteSpace=wrap;connectable=0;strokeColor=inherit;overflow=hidden;fillColor=none;top=0;left=0;bottom=0;right=0;pointerEvents=1;fontSize=16;fontFamily=Lucida Console;strokeWidth=2;" vertex="1" parent="hUa3MmjVPTCR2uWjU0kE-425">
          <mxGeometry x="200" width="100" height="40" as="geometry">
            <mxRectangle width="100" height="40" as="alternateBounds" />
          </mxGeometry>
        </mxCell>
        <mxCell id="hUa3MmjVPTCR2uWjU0kE-429" value="..." style="shape=partialRectangle;html=1;whiteSpace=wrap;connectable=0;strokeColor=inherit;overflow=hidden;fillColor=none;top=0;left=0;bottom=0;right=0;pointerEvents=1;fontSize=16;fontFamily=Lucida Console;strokeWidth=2;" vertex="1" parent="hUa3MmjVPTCR2uWjU0kE-425">
          <mxGeometry x="300" width="40" height="40" as="geometry">
            <mxRectangle width="40" height="40" as="alternateBounds" />
          </mxGeometry>
        </mxCell>
        <mxCell id="hUa3MmjVPTCR2uWjU0kE-430" value="..." style="shape=partialRectangle;html=1;whiteSpace=wrap;connectable=0;strokeColor=inherit;overflow=hidden;fillColor=none;top=0;left=0;bottom=0;right=0;pointerEvents=1;fontSize=16;fontFamily=Lucida Console;strokeWidth=2;" vertex="1" parent="hUa3MmjVPTCR2uWjU0kE-425">
          <mxGeometry x="340" width="65" height="40" as="geometry">
            <mxRectangle width="65" height="40" as="alternateBounds" />
          </mxGeometry>
        </mxCell>
        <mxCell id="hUa3MmjVPTCR2uWjU0kE-447" value="..." style="shape=partialRectangle;html=1;whiteSpace=wrap;connectable=0;strokeColor=inherit;overflow=hidden;fillColor=none;top=0;left=0;bottom=0;right=0;pointerEvents=1;fontSize=16;fontFamily=Lucida Console;strokeWidth=2;" vertex="1" parent="hUa3MmjVPTCR2uWjU0kE-425">
          <mxGeometry x="405" width="40" height="40" as="geometry">
            <mxRectangle width="40" height="40" as="alternateBounds" />
          </mxGeometry>
        </mxCell>
        <mxCell id="hUa3MmjVPTCR2uWjU0kE-443" value="..." style="shape=partialRectangle;html=1;whiteSpace=wrap;connectable=0;strokeColor=inherit;overflow=hidden;fillColor=none;top=0;left=0;bottom=0;right=0;pointerEvents=1;fontSize=16;fontFamily=Lucida Console;strokeWidth=2;" vertex="1" parent="hUa3MmjVPTCR2uWjU0kE-425">
          <mxGeometry x="445" width="65" height="40" as="geometry">
            <mxRectangle width="65" height="40" as="alternateBounds" />
          </mxGeometry>
        </mxCell>
        <mxCell id="hUa3MmjVPTCR2uWjU0kE-439" value=".." style="shape=partialRectangle;html=1;whiteSpace=wrap;connectable=0;strokeColor=inherit;overflow=hidden;fillColor=none;top=0;left=0;bottom=0;right=0;pointerEvents=1;fontSize=16;fontFamily=Lucida Console;strokeWidth=2;" vertex="1" parent="hUa3MmjVPTCR2uWjU0kE-425">
          <mxGeometry x="510" width="65" height="40" as="geometry">
            <mxRectangle width="65" height="40" as="alternateBounds" />
          </mxGeometry>
        </mxCell>
        <mxCell id="hUa3MmjVPTCR2uWjU0kE-435" value="..." style="shape=partialRectangle;html=1;whiteSpace=wrap;connectable=0;strokeColor=inherit;overflow=hidden;fillColor=none;top=0;left=0;bottom=0;right=0;pointerEvents=1;fontSize=16;fontFamily=Lucida Console;strokeWidth=2;" vertex="1" parent="hUa3MmjVPTCR2uWjU0kE-425">
          <mxGeometry x="575" width="40" height="40" as="geometry">
            <mxRectangle width="40" height="40" as="alternateBounds" />
          </mxGeometry>
        </mxCell>
        <mxCell id="hUa3MmjVPTCR2uWjU0kE-451" value="..." style="shape=partialRectangle;html=1;whiteSpace=wrap;connectable=0;strokeColor=inherit;overflow=hidden;fillColor=none;top=0;left=0;bottom=0;right=0;pointerEvents=1;fontSize=16;fontFamily=Lucida Console;strokeWidth=2;" vertex="1" parent="hUa3MmjVPTCR2uWjU0kE-425">
          <mxGeometry x="615" width="60" height="40" as="geometry">
            <mxRectangle width="60" height="40" as="alternateBounds" />
          </mxGeometry>
        </mxCell>
        <mxCell id="hUa3MmjVPTCR2uWjU0kE-431" value="Reassigning Data" style="edgeStyle=orthogonalEdgeStyle;rounded=0;orthogonalLoop=1;jettySize=auto;html=1;entryX=0.429;entryY=0;entryDx=0;entryDy=0;entryPerimeter=0;fontFamily=Lucida Console;fontSize=16;fontColor=default;strokeWidth=2;" edge="1" parent="1" source="hUa3MmjVPTCR2uWjU0kE-372" target="hUa3MmjVPTCR2uWjU0kE-407">
          <mxGeometry relative="1" as="geometry" />
        </mxCell>
      </root>
    </mxGraphModel>
  </diagram>
</mxfile>
